<?xml version="1.0" encoding="utf-8"?>
<!-- Generator: Adobe Illustrator 19.2.1, SVG Export Plug-In . SVG Version: 6.00 Build 0)  -->
<svg version="1.1" id="Layer_1" xmlns="http://www.w3.org/2000/svg" xmlns:xlink="http://www.w3.org/1999/xlink" x="0px" y="0px"
	 viewBox="0 0 113.7 29.8" style="enable-background:new 0 0 113.7 29.8;" xml:space="preserve">
<style type="text/css">
	.st0{fill:grey};

	}
</style>
<path class="st0" d="M100.5,15.5c0-2.3,1.7-4,3.8-4c2,0,3.8,1.7,3.8,4c0,2.3-1.7,4-3.8,4C102.2,19.5,100.5,17.8,100.5,15.5
	 M95.7,15.5c0,3.9,2.8,8.4,8.5,8.4s8.5-4.5,8.5-8.4c0-3.9-2.8-8.4-8.5-8.4S95.7,11.6,95.7,15.5 M94.8,2.4h-4.7V6h4.7V2.4z M94.8,7.6
	h-4.7v15.8h4.7V7.6z M83.6,23.4h4.7v-21h-4.7V23.4z M70.4,15.5c0-2.3,1.7-4,3.8-4c2,0,3.8,1.7,3.8,4c0,2.3-1.7,4-3.8,4
	C72.1,19.5,70.4,17.8,70.4,15.5 M65.7,15.5c0,3.9,2.8,8.4,8.5,8.4s8.5-4.5,8.5-8.4c0-3.9-2.8-8.4-8.5-8.4S65.7,11.6,65.7,15.5
	 M58.8,23.4h4.7V11.2h2V7.6h-2V7c0-1.3,1.1-1.5,1.4-1.5h0.5V2h-0.7c-2.3,0-6,0.4-6,4.8v0.8H57v3.6h1.8V23.4z M53.8,2.4H49v5.3h-2.3
	v3.6H49v12.2h4.7V11.2H56V7.6h-2.3V2.4z M37.2,23.4h4.7v-8.7c0-2.4,1.5-2.8,3.7-2.9V7.1c-2.7,0-3.6,1.4-3.9,2.2h-0.1V7.6h-4.4V23.4z
	 M24,15.5c0-2.3,1.7-4,3.8-4c2,0,3.8,1.7,3.8,4c0,2.3-1.7,4-3.8,4C25.7,19.5,24,17.8,24,15.5 M19.3,15.5c0,3.9,2.8,8.4,8.5,8.4
	s8.5-4.5,8.5-8.4c0-3.9-2.8-8.4-8.5-8.4S19.3,11.6,19.3,15.5 M9.8,19.5c-2.5,0-3.9-2-3.9-4c0-1.9,1.4-4,3.9-4c2.6,0,3.9,2.2,3.9,4
	C13.7,17.5,12.3,19.5,9.8,19.5 M1.3,28.7H6V22c0.6,0.6,1.9,2,4.7,2c4.5,0,7.7-3.7,7.7-8.3c0-3.7-2.1-8.6-7.7-8.6
	c-2.4,0-4,1.1-4.9,2.3H5.8h0V7.6H1.3V28.7z"/>
</svg>
